<mxfile host="app.diagrams.net" modified="2021-11-28T12:47:09.779Z" agent="5.0 (Windows NT 10.0; Win64; x64) AppleWebKit/537.36 (KHTML, like Gecko) Chrome/96.0.4664.55 Safari/537.36 Edg/96.0.1054.34" etag="OUfV1lzKcba0xg1CLH92" version="15.8.6" type="github">
  <diagram name="Page-1" id="e3a06f82-3646-2815-327d-82caf3d4e204">
    <mxGraphModel dx="1963" dy="1123" grid="1" gridSize="10" guides="1" tooltips="1" connect="1" arrows="1" fold="1" page="1" pageScale="1.5" pageWidth="1169" pageHeight="826" background="none" math="0" shadow="0">
      <root>
        <mxCell id="0" style=";html=1;" />
        <mxCell id="1" style=";html=1;" parent="0" />
        <mxCell id="6a7d8f32e03d9370-59" value="Citrix XenApp Server Farm&lt;div&gt;with firewalls&lt;/div&gt;" style="whiteSpace=wrap;html=1;fillColor=#EDEDED;fontSize=14;strokeColor=none;verticalAlign=top;" parent="1" vertex="1">
          <mxGeometry x="599" y="98" width="280" height="1010" as="geometry" />
        </mxCell>
        <mxCell id="6a7d8f32e03d9370-58" value="Residential Private Networks" style="whiteSpace=wrap;html=1;fillColor=#dae8fc;fontSize=14;strokeColor=none;verticalAlign=top;" parent="1" vertex="1">
          <mxGeometry x="177" y="863" width="310" height="318" as="geometry" />
        </mxCell>
        <mxCell id="6a7d8f32e03d9370-57" value="Enterprise Networks" style="whiteSpace=wrap;html=1;fillColor=#FFD470;gradientColor=none;fontSize=14;strokeColor=none;verticalAlign=top;" parent="1" vertex="1">
          <mxGeometry x="179" y="98" width="308" height="680" as="geometry" />
        </mxCell>
        <mxCell id="6a7d8f32e03d9370-36" style="edgeStyle=none;rounded=0;html=1;startSize=10;endSize=10;jettySize=auto;orthogonalLoop=1;fontSize=14;endArrow=none;endFill=0;strokeWidth=2;" parent="1" source="6a7d8f32e03d9370-1" target="6a7d8f32e03d9370-14" edge="1">
          <mxGeometry relative="1" as="geometry" />
        </mxCell>
        <mxCell id="6a7d8f32e03d9370-1" value="Client" style="verticalLabelPosition=bottom;aspect=fixed;html=1;verticalAlign=top;strokeColor=none;shape=mxgraph.citrix.laptop_2;fillColor=#66B2FF;gradientColor=#0066CC;fontSize=14;" parent="1" vertex="1">
          <mxGeometry x="350.4999999999999" y="927" width="116" height="86.5" as="geometry" />
        </mxCell>
        <mxCell id="6a7d8f32e03d9370-35" style="edgeStyle=none;rounded=0;html=1;startSize=10;endSize=10;jettySize=auto;orthogonalLoop=1;fontSize=14;endArrow=none;endFill=0;strokeWidth=2;" parent="1" source="6a7d8f32e03d9370-2" target="6a7d8f32e03d9370-9" edge="1">
          <mxGeometry relative="1" as="geometry" />
        </mxCell>
        <mxCell id="6a7d8f32e03d9370-2" value="Client" style="verticalLabelPosition=bottom;aspect=fixed;html=1;verticalAlign=top;strokeColor=none;shape=mxgraph.citrix.laptop_2;fillColor=#66B2FF;gradientColor=#0066CC;fontSize=14;" parent="1" vertex="1">
          <mxGeometry x="352.4999999999999" y="649" width="116" height="86.5" as="geometry" />
        </mxCell>
        <mxCell id="6a7d8f32e03d9370-34" style="edgeStyle=none;rounded=0;html=1;startSize=10;endSize=10;jettySize=auto;orthogonalLoop=1;fontSize=14;endArrow=none;endFill=0;strokeWidth=2;" parent="1" source="6a7d8f32e03d9370-3" target="6a7d8f32e03d9370-10" edge="1">
          <mxGeometry relative="1" as="geometry" />
        </mxCell>
        <mxCell id="6a7d8f32e03d9370-3" value="client" style="verticalLabelPosition=bottom;aspect=fixed;html=1;verticalAlign=top;strokeColor=none;shape=mxgraph.citrix.desktop;fillColor=#66B2FF;gradientColor=#0066CC;fontSize=14;" parent="1" vertex="1">
          <mxGeometry x="365.99999999999994" y="483.99999999999994" width="89" height="98" as="geometry" />
        </mxCell>
        <mxCell id="6a7d8f32e03d9370-33" style="edgeStyle=none;rounded=0;html=1;startSize=10;endSize=10;jettySize=auto;orthogonalLoop=1;fontSize=14;endArrow=none;endFill=0;strokeWidth=2;" parent="1" source="6a7d8f32e03d9370-4" target="6a7d8f32e03d9370-11" edge="1">
          <mxGeometry relative="1" as="geometry" />
        </mxCell>
        <mxCell id="6a7d8f32e03d9370-4" value="Client" style="verticalLabelPosition=bottom;aspect=fixed;html=1;verticalAlign=top;strokeColor=none;shape=mxgraph.citrix.desktop;fillColor=#66B2FF;gradientColor=#0066CC;fontSize=14;" parent="1" vertex="1">
          <mxGeometry x="365.99999999999994" y="320.00000000000006" width="89" height="98" as="geometry" />
        </mxCell>
        <mxCell id="6a7d8f32e03d9370-32" style="edgeStyle=none;rounded=0;html=1;startSize=10;endSize=10;jettySize=auto;orthogonalLoop=1;fontSize=14;endArrow=none;endFill=0;strokeWidth=2;" parent="1" source="6a7d8f32e03d9370-5" target="6a7d8f32e03d9370-12" edge="1">
          <mxGeometry relative="1" as="geometry" />
        </mxCell>
        <mxCell id="6a7d8f32e03d9370-5" value="Client" style="verticalLabelPosition=bottom;aspect=fixed;html=1;verticalAlign=top;strokeColor=none;shape=mxgraph.citrix.desktop;fillColor=#66B2FF;gradientColor=#0066CC;fontSize=14;" parent="1" vertex="1">
          <mxGeometry x="362.00000000000006" y="156.00000000000006" width="89" height="98" as="geometry" />
        </mxCell>
        <mxCell id="6a7d8f32e03d9370-37" style="edgeStyle=none;rounded=0;html=1;startSize=10;endSize=10;jettySize=auto;orthogonalLoop=1;fontSize=14;endArrow=none;endFill=0;strokeWidth=2;" parent="1" source="6a7d8f32e03d9370-6" target="6a7d8f32e03d9370-14" edge="1">
          <mxGeometry relative="1" as="geometry" />
        </mxCell>
        <mxCell id="6a7d8f32e03d9370-6" value="Client" style="verticalLabelPosition=bottom;aspect=fixed;html=1;verticalAlign=top;strokeColor=none;shape=mxgraph.citrix.pda;fillColor=#66B2FF;gradientColor=#0066CC;fontSize=14;" parent="1" vertex="1">
          <mxGeometry x="393.50000000000006" y="1065" width="30" height="61" as="geometry" />
        </mxCell>
        <mxCell id="6a7d8f32e03d9370-39" style="edgeStyle=none;rounded=0;html=1;startSize=10;endSize=10;jettySize=auto;orthogonalLoop=1;fontSize=14;endArrow=none;endFill=0;strokeWidth=2;" parent="1" source="6a7d8f32e03d9370-8" target="6a7d8f32e03d9370-21" edge="1">
          <mxGeometry relative="1" as="geometry">
            <mxPoint x="737" y="846" as="targetPoint" />
          </mxGeometry>
        </mxCell>
        <mxCell id="6a7d8f32e03d9370-8" value="" style="verticalLabelPosition=bottom;aspect=fixed;html=1;verticalAlign=top;strokeColor=none;shape=mxgraph.citrix.xenapp_server;fillColor=#66B2FF;gradientColor=#0066CC;fontSize=14;" parent="1" vertex="1">
          <mxGeometry x="636.9999999999999" y="813" width="76" height="89" as="geometry" />
        </mxCell>
        <mxCell id="6a7d8f32e03d9370-40" style="edgeStyle=none;rounded=0;html=1;startSize=10;endSize=10;jettySize=auto;orthogonalLoop=1;fontSize=14;endArrow=none;endFill=0;strokeWidth=2;" parent="1" source="6a7d8f32e03d9370-9" target="6a7d8f32e03d9370-20" edge="1">
          <mxGeometry relative="1" as="geometry" />
        </mxCell>
        <mxCell id="6a7d8f32e03d9370-9" value="" style="verticalLabelPosition=bottom;aspect=fixed;html=1;verticalAlign=top;strokeColor=none;shape=mxgraph.citrix.xenapp_server;fillColor=#66B2FF;gradientColor=#0066CC;fontSize=14;" parent="1" vertex="1">
          <mxGeometry x="637.0000000000001" y="649" width="76" height="89" as="geometry" />
        </mxCell>
        <mxCell id="6a7d8f32e03d9370-41" style="edgeStyle=none;rounded=0;html=1;startSize=10;endSize=10;jettySize=auto;orthogonalLoop=1;fontSize=14;endArrow=none;endFill=0;strokeWidth=2;" parent="1" source="6a7d8f32e03d9370-10" target="6a7d8f32e03d9370-19" edge="1">
          <mxGeometry relative="1" as="geometry" />
        </mxCell>
        <mxCell id="6a7d8f32e03d9370-10" value="" style="verticalLabelPosition=bottom;aspect=fixed;html=1;verticalAlign=top;strokeColor=none;shape=mxgraph.citrix.xenapp_server;fillColor=#66B2FF;gradientColor=#0066CC;fontSize=14;" parent="1" vertex="1">
          <mxGeometry x="636.9999999999999" y="484" width="76" height="89" as="geometry" />
        </mxCell>
        <mxCell id="6a7d8f32e03d9370-42" style="edgeStyle=none;rounded=0;html=1;startSize=10;endSize=10;jettySize=auto;orthogonalLoop=1;fontSize=14;endArrow=none;endFill=0;strokeWidth=2;" parent="1" source="6a7d8f32e03d9370-11" target="6a7d8f32e03d9370-18" edge="1">
          <mxGeometry relative="1" as="geometry" />
        </mxCell>
        <mxCell id="6a7d8f32e03d9370-11" value="" style="verticalLabelPosition=bottom;aspect=fixed;html=1;verticalAlign=top;strokeColor=none;shape=mxgraph.citrix.xenapp_server;fillColor=#66B2FF;gradientColor=#0066CC;fontSize=14;" parent="1" vertex="1">
          <mxGeometry x="636.9999999999999" y="320" width="76" height="89" as="geometry" />
        </mxCell>
        <mxCell id="6a7d8f32e03d9370-43" style="edgeStyle=none;rounded=0;html=1;startSize=10;endSize=10;jettySize=auto;orthogonalLoop=1;fontSize=14;endArrow=none;endFill=0;strokeWidth=2;" parent="1" source="6a7d8f32e03d9370-12" target="6a7d8f32e03d9370-17" edge="1">
          <mxGeometry relative="1" as="geometry" />
        </mxCell>
        <mxCell id="6a7d8f32e03d9370-12" value="" style="verticalLabelPosition=bottom;aspect=fixed;html=1;verticalAlign=top;strokeColor=none;shape=mxgraph.citrix.xenapp_server;fillColor=#66B2FF;gradientColor=#0066CC;fontSize=14;" parent="1" vertex="1">
          <mxGeometry x="637.0000000000001" y="156" width="76" height="89" as="geometry" />
        </mxCell>
        <mxCell id="6a7d8f32e03d9370-38" style="edgeStyle=none;rounded=0;html=1;startSize=10;endSize=10;jettySize=auto;orthogonalLoop=1;fontSize=14;endArrow=none;endFill=0;strokeWidth=2;" parent="1" source="6a7d8f32e03d9370-14" target="6a7d8f32e03d9370-8" edge="1">
          <mxGeometry relative="1" as="geometry" />
        </mxCell>
        <mxCell id="6a7d8f32e03d9370-14" value="" style="verticalLabelPosition=bottom;aspect=fixed;html=1;verticalAlign=top;strokeColor=none;shape=mxgraph.citrix.xenclient_synchronizer;fillColor=#CCCCCC;gradientColor=#000000;gradientDirection=south;fontSize=14;" parent="1" vertex="1">
          <mxGeometry x="636.9999999999999" y="976" width="76" height="91" as="geometry" />
        </mxCell>
        <mxCell id="6a7d8f32e03d9370-17" value="" style="verticalLabelPosition=bottom;aspect=fixed;html=1;verticalAlign=top;strokeColor=none;shape=mxgraph.citrix.firewall;fillColor=#66B2FF;gradientColor=#0066CC;fontSize=14;" parent="1" vertex="1">
          <mxGeometry x="759" y="156" width="75" height="93" as="geometry" />
        </mxCell>
        <mxCell id="6a7d8f32e03d9370-18" value="" style="verticalLabelPosition=bottom;aspect=fixed;html=1;verticalAlign=top;strokeColor=none;shape=mxgraph.citrix.firewall;fillColor=#66B2FF;gradientColor=#0066CC;fontSize=14;" parent="1" vertex="1">
          <mxGeometry x="759" y="320" width="75" height="93" as="geometry" />
        </mxCell>
        <mxCell id="6a7d8f32e03d9370-19" value="" style="verticalLabelPosition=bottom;aspect=fixed;html=1;verticalAlign=top;strokeColor=none;shape=mxgraph.citrix.firewall;fillColor=#66B2FF;gradientColor=#0066CC;fontSize=14;" parent="1" vertex="1">
          <mxGeometry x="759" y="484" width="75" height="93" as="geometry" />
        </mxCell>
        <mxCell id="6a7d8f32e03d9370-20" value="" style="verticalLabelPosition=bottom;aspect=fixed;html=1;verticalAlign=top;strokeColor=none;shape=mxgraph.citrix.firewall;fillColor=#66B2FF;gradientColor=#0066CC;fontSize=14;" parent="1" vertex="1">
          <mxGeometry x="759" y="649" width="75" height="93" as="geometry" />
        </mxCell>
        <mxCell id="6a7d8f32e03d9370-21" value="" style="verticalLabelPosition=bottom;aspect=fixed;html=1;verticalAlign=top;strokeColor=none;shape=mxgraph.citrix.firewall;fillColor=#66B2FF;gradientColor=#0066CC;fontSize=14;" parent="1" vertex="1">
          <mxGeometry x="759" y="813" width="75" height="93" as="geometry" />
        </mxCell>
        <mxCell id="6a7d8f32e03d9370-23" value="" style="verticalLabelPosition=bottom;aspect=fixed;html=1;verticalAlign=top;strokeColor=none;shape=mxgraph.citrix.home_office;fillColor=#66B2FF;gradientColor=#0066CC;fontSize=14;" parent="1" vertex="1">
          <mxGeometry x="207" y="955" width="80" height="55.5" as="geometry" />
        </mxCell>
        <mxCell id="6a7d8f32e03d9370-24" value="" style="verticalLabelPosition=bottom;aspect=fixed;html=1;verticalAlign=top;strokeColor=none;shape=mxgraph.citrix.hq_enterprise;fillColor=#66B2FF;gradientColor=#0066CC;fontSize=14;" parent="1" vertex="1">
          <mxGeometry x="227" y="252" width="92" height="88" as="geometry" />
        </mxCell>
        <mxCell id="-EbjCZFaRYP1S_G91VMJ-7" value="&lt;b style=&quot;font-size: 26px&quot;&gt;Embedded Corporation&lt;/b&gt;" style="text;strokeColor=none;fillColor=none;html=1;fontSize=24;fontStyle=1;verticalAlign=middle;align=center;" vertex="1" parent="1">
          <mxGeometry x="530" width="861" height="40" as="geometry" />
        </mxCell>
        <mxCell id="-EbjCZFaRYP1S_G91VMJ-15" value="&lt;font size=&quot;1&quot;&gt;&lt;b style=&quot;font-size: 24px&quot;&gt;Offices&lt;/b&gt;&lt;/font&gt;" style="whiteSpace=wrap;html=1;fillColor=#d5e8d4;fontSize=14;strokeColor=none;verticalAlign=top;" vertex="1" parent="1">
          <mxGeometry x="937" y="764" width="3163" height="1556" as="geometry" />
        </mxCell>
        <mxCell id="-EbjCZFaRYP1S_G91VMJ-16" value="" style="rounded=1;whiteSpace=wrap;html=1;fontSize=26;fillColor=none;" vertex="1" parent="1">
          <mxGeometry x="960" y="909" width="1370" height="741" as="geometry" />
        </mxCell>
        <mxCell id="-EbjCZFaRYP1S_G91VMJ-17" style="edgeStyle=none;rounded=0;html=1;startSize=10;endSize=10;jettySize=auto;orthogonalLoop=1;fontSize=14;endArrow=none;endFill=0;strokeWidth=2;entryX=1;entryY=0.75;entryDx=0;entryDy=0;" edge="1" parent="1" source="-EbjCZFaRYP1S_G91VMJ-20" target="-EbjCZFaRYP1S_G91VMJ-24">
          <mxGeometry relative="1" as="geometry">
            <mxPoint x="1256" y="496.27537878787894" as="targetPoint" />
          </mxGeometry>
        </mxCell>
        <mxCell id="-EbjCZFaRYP1S_G91VMJ-19" style="edgeStyle=none;rounded=0;orthogonalLoop=1;jettySize=auto;html=1;fontSize=26;endArrow=none;endFill=0;" edge="1" parent="1" source="-EbjCZFaRYP1S_G91VMJ-20" target="-EbjCZFaRYP1S_G91VMJ-30">
          <mxGeometry relative="1" as="geometry" />
        </mxCell>
        <mxCell id="-EbjCZFaRYP1S_G91VMJ-35" value="&lt;b&gt;&lt;font style=&quot;font-size: 24px&quot;&gt;DMZ&lt;/font&gt;&lt;/b&gt;" style="rounded=0;orthogonalLoop=1;jettySize=auto;html=1;endArrow=none;endFill=0;" edge="1" parent="1" source="-EbjCZFaRYP1S_G91VMJ-20" target="-EbjCZFaRYP1S_G91VMJ-34">
          <mxGeometry relative="1" as="geometry" />
        </mxCell>
        <mxCell id="-EbjCZFaRYP1S_G91VMJ-20" value="" style="verticalLabelPosition=bottom;aspect=fixed;html=1;verticalAlign=top;strokeColor=none;shape=mxgraph.citrix.router;fillColor=#66B2FF;gradientColor=#0066CC;fontSize=14;" vertex="1" parent="1">
          <mxGeometry x="1150" y="964.5" width="55" height="36.5" as="geometry" />
        </mxCell>
        <mxCell id="-EbjCZFaRYP1S_G91VMJ-21" value="" style="verticalLabelPosition=bottom;aspect=fixed;html=1;verticalAlign=top;strokeColor=none;shape=mxgraph.citrix.site;fillColor=#66B2FF;gradientColor=#0066CC;fontSize=14;" vertex="1" parent="1">
          <mxGeometry x="1610" y="649" width="233.07" height="220" as="geometry" />
        </mxCell>
        <mxCell id="-EbjCZFaRYP1S_G91VMJ-22" value="" style="group" vertex="1" connectable="0" parent="1">
          <mxGeometry x="870" y="393.5" width="240" height="270" as="geometry" />
        </mxCell>
        <mxCell id="-EbjCZFaRYP1S_G91VMJ-23" value="&lt;font size=&quot;1&quot;&gt;&lt;b style=&quot;font-size: 24px&quot;&gt;Internet&lt;/b&gt;&lt;/font&gt;" style="whiteSpace=wrap;html=1;fillColor=#f8cecc;fontSize=14;strokeColor=none;verticalAlign=top;" vertex="1" parent="-EbjCZFaRYP1S_G91VMJ-22">
          <mxGeometry width="240" height="270" as="geometry" />
        </mxCell>
        <mxCell id="-EbjCZFaRYP1S_G91VMJ-24" value="" style="aspect=fixed;perimeter=ellipsePerimeter;html=1;align=center;shadow=0;dashed=0;spacingTop=3;image;image=img/lib/active_directory/internet_globe.svg;" vertex="1" parent="-EbjCZFaRYP1S_G91VMJ-22">
          <mxGeometry x="20.5" y="49.5" width="200" height="200" as="geometry" />
        </mxCell>
        <mxCell id="-EbjCZFaRYP1S_G91VMJ-36" style="edgeStyle=none;rounded=0;orthogonalLoop=1;jettySize=auto;html=1;endArrow=none;endFill=0;exitX=0.56;exitY=0.137;exitDx=0;exitDy=0;exitPerimeter=0;" edge="1" parent="1" source="-EbjCZFaRYP1S_G91VMJ-47" target="-EbjCZFaRYP1S_G91VMJ-42">
          <mxGeometry relative="1" as="geometry" />
        </mxCell>
        <mxCell id="-EbjCZFaRYP1S_G91VMJ-25" value="DNS" style="verticalLabelPosition=bottom;sketch=0;aspect=fixed;html=1;verticalAlign=top;strokeColor=none;align=center;outlineConnect=0;shape=mxgraph.citrix.dns_server;fontSize=26;" vertex="1" parent="1">
          <mxGeometry x="1010" y="1430" width="130" height="157.18" as="geometry" />
        </mxCell>
        <mxCell id="-EbjCZFaRYP1S_G91VMJ-26" value="&lt;font style=&quot;font-size: 37px&quot;&gt;IT&lt;/font&gt;" style="text;html=1;strokeColor=none;fillColor=none;align=center;verticalAlign=middle;whiteSpace=wrap;rounded=0;fontSize=26;" vertex="1" parent="1">
          <mxGeometry x="1010" y="955.25" width="60" height="30" as="geometry" />
        </mxCell>
        <mxCell id="-EbjCZFaRYP1S_G91VMJ-27" style="edgeStyle=none;rounded=0;orthogonalLoop=1;jettySize=auto;html=1;fontSize=26;endArrow=none;endFill=0;" edge="1" parent="1" source="-EbjCZFaRYP1S_G91VMJ-44" target="-EbjCZFaRYP1S_G91VMJ-31">
          <mxGeometry relative="1" as="geometry" />
        </mxCell>
        <mxCell id="-EbjCZFaRYP1S_G91VMJ-46" style="edgeStyle=none;rounded=0;orthogonalLoop=1;jettySize=auto;html=1;fontSize=29;endArrow=none;endFill=0;" edge="1" parent="1" source="-EbjCZFaRYP1S_G91VMJ-28" target="-EbjCZFaRYP1S_G91VMJ-44">
          <mxGeometry relative="1" as="geometry" />
        </mxCell>
        <mxCell id="-EbjCZFaRYP1S_G91VMJ-28" value="" style="verticalLabelPosition=bottom;sketch=0;aspect=fixed;html=1;verticalAlign=top;strokeColor=none;align=center;outlineConnect=0;shape=mxgraph.citrix.router;fontSize=26;fillColor=none;" vertex="1" parent="1">
          <mxGeometry x="1850" y="964.5" width="55" height="36.5" as="geometry" />
        </mxCell>
        <mxCell id="-EbjCZFaRYP1S_G91VMJ-29" style="edgeStyle=none;rounded=0;orthogonalLoop=1;jettySize=auto;html=1;fontSize=26;endArrow=none;endFill=0;" edge="1" parent="1" source="-EbjCZFaRYP1S_G91VMJ-30" target="-EbjCZFaRYP1S_G91VMJ-33">
          <mxGeometry relative="1" as="geometry" />
        </mxCell>
        <mxCell id="-EbjCZFaRYP1S_G91VMJ-30" value="" style="verticalLabelPosition=bottom;sketch=0;aspect=fixed;html=1;verticalAlign=top;strokeColor=none;align=center;outlineConnect=0;shape=mxgraph.citrix.firewall;fontSize=26;fillColor=none;" vertex="1" parent="1">
          <mxGeometry x="1350" y="936.25" width="75" height="93" as="geometry" />
        </mxCell>
        <mxCell id="-EbjCZFaRYP1S_G91VMJ-31" value="Internal DNS" style="verticalLabelPosition=bottom;sketch=0;aspect=fixed;html=1;verticalAlign=top;strokeColor=none;align=center;outlineConnect=0;shape=mxgraph.citrix.dns_server;fontSize=26;" vertex="1" parent="1">
          <mxGeometry x="1580" y="1126" width="85.19" height="103" as="geometry" />
        </mxCell>
        <mxCell id="-EbjCZFaRYP1S_G91VMJ-32" style="edgeStyle=none;rounded=0;orthogonalLoop=1;jettySize=auto;html=1;fontSize=26;endArrow=none;endFill=0;" edge="1" parent="1" source="-EbjCZFaRYP1S_G91VMJ-33" target="-EbjCZFaRYP1S_G91VMJ-28">
          <mxGeometry relative="1" as="geometry" />
        </mxCell>
        <mxCell id="-EbjCZFaRYP1S_G91VMJ-33" value="Squid Caching Proxy" style="verticalLabelPosition=bottom;sketch=0;aspect=fixed;html=1;verticalAlign=top;strokeColor=none;align=center;outlineConnect=0;shape=mxgraph.citrix.cache_server;fontSize=26;fillColor=none;" vertex="1" parent="1">
          <mxGeometry x="1575.19" y="927.75" width="80.1" height="110" as="geometry" />
        </mxCell>
        <mxCell id="-EbjCZFaRYP1S_G91VMJ-38" style="edgeStyle=none;rounded=0;orthogonalLoop=1;jettySize=auto;html=1;fontSize=37;endArrow=none;endFill=0;" edge="1" parent="1" source="-EbjCZFaRYP1S_G91VMJ-42" target="-EbjCZFaRYP1S_G91VMJ-48">
          <mxGeometry relative="1" as="geometry" />
        </mxCell>
        <mxCell id="-EbjCZFaRYP1S_G91VMJ-43" style="edgeStyle=none;rounded=0;orthogonalLoop=1;jettySize=auto;html=1;fontSize=29;endArrow=none;endFill=0;" edge="1" parent="1" source="-EbjCZFaRYP1S_G91VMJ-34" target="-EbjCZFaRYP1S_G91VMJ-42">
          <mxGeometry relative="1" as="geometry" />
        </mxCell>
        <mxCell id="-EbjCZFaRYP1S_G91VMJ-34" value="" style="verticalLabelPosition=bottom;sketch=0;aspect=fixed;html=1;verticalAlign=top;strokeColor=none;align=center;outlineConnect=0;shape=mxgraph.citrix.router;" vertex="1" parent="1">
          <mxGeometry x="1110" y="1140" width="55" height="36.5" as="geometry" />
        </mxCell>
        <mxCell id="-EbjCZFaRYP1S_G91VMJ-37" value="&lt;font style=&quot;font-size: 29px&quot;&gt;Web Server&lt;/font&gt;" style="verticalLabelPosition=bottom;sketch=0;aspect=fixed;html=1;verticalAlign=top;strokeColor=none;align=center;outlineConnect=0;shape=mxgraph.citrix.web_server;fontSize=37;" vertex="1" parent="1">
          <mxGeometry x="1250" y="1420" width="127.5" height="150" as="geometry" />
        </mxCell>
        <mxCell id="-EbjCZFaRYP1S_G91VMJ-39" value="Xen Server" style="verticalLabelPosition=bottom;sketch=0;aspect=fixed;html=1;verticalAlign=top;strokeColor=none;align=center;outlineConnect=0;shape=mxgraph.citrix.xenserver;fontSize=29;" vertex="1" parent="1">
          <mxGeometry x="1570" y="1310" width="127.5" height="150" as="geometry" />
        </mxCell>
        <mxCell id="-EbjCZFaRYP1S_G91VMJ-42" value="" style="verticalLabelPosition=bottom;sketch=0;aspect=fixed;html=1;verticalAlign=top;strokeColor=none;align=center;outlineConnect=0;shape=mxgraph.citrix.switch;fontSize=29;" vertex="1" parent="1">
          <mxGeometry x="1080" y="1220" width="92" height="41.5" as="geometry" />
        </mxCell>
        <mxCell id="-EbjCZFaRYP1S_G91VMJ-45" style="edgeStyle=none;rounded=0;orthogonalLoop=1;jettySize=auto;html=1;fontSize=29;endArrow=none;endFill=0;" edge="1" parent="1" source="-EbjCZFaRYP1S_G91VMJ-44" target="-EbjCZFaRYP1S_G91VMJ-39">
          <mxGeometry relative="1" as="geometry" />
        </mxCell>
        <mxCell id="-EbjCZFaRYP1S_G91VMJ-53" style="edgeStyle=none;rounded=0;orthogonalLoop=1;jettySize=auto;html=1;fontSize=29;endArrow=none;endFill=0;" edge="1" parent="1" source="-EbjCZFaRYP1S_G91VMJ-44" target="-EbjCZFaRYP1S_G91VMJ-51">
          <mxGeometry relative="1" as="geometry" />
        </mxCell>
        <mxCell id="-EbjCZFaRYP1S_G91VMJ-54" style="edgeStyle=none;rounded=0;orthogonalLoop=1;jettySize=auto;html=1;fontSize=29;endArrow=none;endFill=0;" edge="1" parent="1" source="-EbjCZFaRYP1S_G91VMJ-44" target="-EbjCZFaRYP1S_G91VMJ-52">
          <mxGeometry relative="1" as="geometry" />
        </mxCell>
        <mxCell id="-EbjCZFaRYP1S_G91VMJ-60" style="edgeStyle=none;rounded=0;orthogonalLoop=1;jettySize=auto;html=1;fontSize=22;endArrow=none;endFill=0;" edge="1" parent="1" source="-EbjCZFaRYP1S_G91VMJ-44" target="-EbjCZFaRYP1S_G91VMJ-59">
          <mxGeometry relative="1" as="geometry" />
        </mxCell>
        <mxCell id="-EbjCZFaRYP1S_G91VMJ-44" value="" style="verticalLabelPosition=bottom;sketch=0;aspect=fixed;html=1;verticalAlign=top;strokeColor=none;align=center;outlineConnect=0;shape=mxgraph.citrix.switch;fontSize=29;" vertex="1" parent="1">
          <mxGeometry x="1850" y="1084.5" width="92" height="41.5" as="geometry" />
        </mxCell>
        <mxCell id="-EbjCZFaRYP1S_G91VMJ-49" style="edgeStyle=none;rounded=0;orthogonalLoop=1;jettySize=auto;html=1;fontSize=29;endArrow=none;endFill=0;" edge="1" parent="1" source="-EbjCZFaRYP1S_G91VMJ-47" target="-EbjCZFaRYP1S_G91VMJ-25">
          <mxGeometry relative="1" as="geometry" />
        </mxCell>
        <mxCell id="-EbjCZFaRYP1S_G91VMJ-47" value="" style="verticalLabelPosition=bottom;aspect=fixed;html=1;verticalAlign=top;strokeColor=none;shape=mxgraph.citrix.firewall;fillColor=#66B2FF;gradientColor=#0066CC;fontSize=14;" vertex="1" parent="1">
          <mxGeometry x="1065" y="1300" width="75" height="93" as="geometry" />
        </mxCell>
        <mxCell id="-EbjCZFaRYP1S_G91VMJ-50" style="edgeStyle=none;rounded=0;orthogonalLoop=1;jettySize=auto;html=1;fontSize=29;endArrow=none;endFill=0;" edge="1" parent="1" source="-EbjCZFaRYP1S_G91VMJ-48" target="-EbjCZFaRYP1S_G91VMJ-37">
          <mxGeometry relative="1" as="geometry" />
        </mxCell>
        <mxCell id="-EbjCZFaRYP1S_G91VMJ-48" value="" style="verticalLabelPosition=bottom;aspect=fixed;html=1;verticalAlign=top;strokeColor=none;shape=mxgraph.citrix.firewall;fillColor=#66B2FF;gradientColor=#0066CC;fontSize=14;" vertex="1" parent="1">
          <mxGeometry x="1175" y="1300" width="75" height="93" as="geometry" />
        </mxCell>
        <mxCell id="-EbjCZFaRYP1S_G91VMJ-51" value="" style="verticalLabelPosition=bottom;sketch=0;aspect=fixed;html=1;verticalAlign=top;strokeColor=none;align=center;outlineConnect=0;shape=mxgraph.citrix.switch;fontSize=29;" vertex="1" parent="1">
          <mxGeometry x="1905" y="1340" width="92" height="41.5" as="geometry" />
        </mxCell>
        <mxCell id="-EbjCZFaRYP1S_G91VMJ-69" style="edgeStyle=none;rounded=0;orthogonalLoop=1;jettySize=auto;html=1;fontSize=22;endArrow=none;endFill=0;" edge="1" parent="1" source="-EbjCZFaRYP1S_G91VMJ-52" target="-EbjCZFaRYP1S_G91VMJ-68">
          <mxGeometry relative="1" as="geometry" />
        </mxCell>
        <mxCell id="-EbjCZFaRYP1S_G91VMJ-52" value="" style="verticalLabelPosition=bottom;sketch=0;aspect=fixed;html=1;verticalAlign=top;strokeColor=none;align=center;outlineConnect=0;shape=mxgraph.citrix.switch;fontSize=29;" vertex="1" parent="1">
          <mxGeometry x="2196" y="1510" width="92" height="41.5" as="geometry" />
        </mxCell>
        <mxCell id="-EbjCZFaRYP1S_G91VMJ-56" style="edgeStyle=none;rounded=0;orthogonalLoop=1;jettySize=auto;html=1;fontSize=29;endArrow=none;endFill=0;" edge="1" parent="1" source="-EbjCZFaRYP1S_G91VMJ-55" target="-EbjCZFaRYP1S_G91VMJ-42">
          <mxGeometry relative="1" as="geometry" />
        </mxCell>
        <mxCell id="-EbjCZFaRYP1S_G91VMJ-55" value="&lt;font style=&quot;font-size: 22px&quot;&gt;DHCP&lt;/font&gt;" style="verticalLabelPosition=bottom;sketch=0;aspect=fixed;html=1;verticalAlign=top;strokeColor=none;align=center;outlineConnect=0;shape=mxgraph.citrix.dhcp_server;fontSize=29;" vertex="1" parent="1">
          <mxGeometry x="1274" y="1195.75" width="76" height="90" as="geometry" />
        </mxCell>
        <mxCell id="-EbjCZFaRYP1S_G91VMJ-59" value="DHCP" style="verticalLabelPosition=bottom;sketch=0;aspect=fixed;html=1;verticalAlign=top;strokeColor=none;align=center;outlineConnect=0;shape=mxgraph.citrix.dhcp_server;fontSize=22;" vertex="1" parent="1">
          <mxGeometry x="2120" y="985.25" width="76" height="90" as="geometry" />
        </mxCell>
        <mxCell id="-EbjCZFaRYP1S_G91VMJ-64" style="edgeStyle=none;rounded=0;orthogonalLoop=1;jettySize=auto;html=1;fontSize=22;endArrow=none;endFill=0;" edge="1" parent="1" source="-EbjCZFaRYP1S_G91VMJ-61" target="-EbjCZFaRYP1S_G91VMJ-51">
          <mxGeometry relative="1" as="geometry" />
        </mxCell>
        <mxCell id="-EbjCZFaRYP1S_G91VMJ-61" value="" style="verticalLabelPosition=bottom;sketch=0;aspect=fixed;html=1;verticalAlign=top;strokeColor=none;align=center;outlineConnect=0;shape=mxgraph.citrix.desktop;fontSize=22;" vertex="1" parent="1">
          <mxGeometry x="1770" y="1472" width="89" height="98" as="geometry" />
        </mxCell>
        <mxCell id="-EbjCZFaRYP1S_G91VMJ-65" style="edgeStyle=none;rounded=0;orthogonalLoop=1;jettySize=auto;html=1;fontSize=22;endArrow=none;endFill=0;" edge="1" parent="1" source="-EbjCZFaRYP1S_G91VMJ-63" target="-EbjCZFaRYP1S_G91VMJ-51">
          <mxGeometry relative="1" as="geometry" />
        </mxCell>
        <mxCell id="-EbjCZFaRYP1S_G91VMJ-63" value="" style="verticalLabelPosition=bottom;sketch=0;aspect=fixed;html=1;verticalAlign=top;strokeColor=none;align=center;outlineConnect=0;shape=mxgraph.citrix.desktop;fontSize=22;" vertex="1" parent="1">
          <mxGeometry x="1997" y="1489.18" width="89" height="98" as="geometry" />
        </mxCell>
        <mxCell id="-EbjCZFaRYP1S_G91VMJ-66" value="" style="rounded=1;whiteSpace=wrap;html=1;fontSize=26;fillColor=none;" vertex="1" parent="1">
          <mxGeometry x="2350" y="909" width="1660" height="469.75" as="geometry" />
        </mxCell>
        <mxCell id="-EbjCZFaRYP1S_G91VMJ-67" value="" style="rounded=1;whiteSpace=wrap;html=1;fontSize=26;fillColor=none;" vertex="1" parent="1">
          <mxGeometry x="960" y="1690" width="1370" height="469.75" as="geometry" />
        </mxCell>
        <mxCell id="-EbjCZFaRYP1S_G91VMJ-76" style="edgeStyle=none;rounded=0;orthogonalLoop=1;jettySize=auto;html=1;fontSize=22;endArrow=none;endFill=0;" edge="1" parent="1" source="-EbjCZFaRYP1S_G91VMJ-68" target="-EbjCZFaRYP1S_G91VMJ-73">
          <mxGeometry relative="1" as="geometry" />
        </mxCell>
        <mxCell id="-EbjCZFaRYP1S_G91VMJ-68" value="" style="verticalLabelPosition=bottom;sketch=0;aspect=fixed;html=1;verticalAlign=top;strokeColor=none;align=center;outlineConnect=0;shape=mxgraph.citrix.router;fontSize=22;" vertex="1" parent="1">
          <mxGeometry x="2214.5" y="1770.75" width="55" height="36.5" as="geometry" />
        </mxCell>
        <mxCell id="-EbjCZFaRYP1S_G91VMJ-77" style="edgeStyle=none;rounded=0;orthogonalLoop=1;jettySize=auto;html=1;fontSize=22;endArrow=none;endFill=0;" edge="1" parent="1" source="-EbjCZFaRYP1S_G91VMJ-70" target="-EbjCZFaRYP1S_G91VMJ-73">
          <mxGeometry relative="1" as="geometry" />
        </mxCell>
        <mxCell id="-EbjCZFaRYP1S_G91VMJ-70" value="" style="verticalLabelPosition=bottom;sketch=0;aspect=fixed;html=1;verticalAlign=top;strokeColor=none;align=center;outlineConnect=0;shape=mxgraph.citrix.dhcp_server;fontSize=22;" vertex="1" parent="1">
          <mxGeometry x="2100" y="2030" width="76" height="90" as="geometry" />
        </mxCell>
        <mxCell id="-EbjCZFaRYP1S_G91VMJ-71" value="" style="verticalLabelPosition=bottom;sketch=0;aspect=fixed;html=1;verticalAlign=top;strokeColor=none;align=center;outlineConnect=0;shape=mxgraph.citrix.desktop;fontSize=22;" vertex="1" parent="1">
          <mxGeometry x="1274" y="1740" width="89" height="98" as="geometry" />
        </mxCell>
        <mxCell id="-EbjCZFaRYP1S_G91VMJ-72" value="" style="verticalLabelPosition=bottom;sketch=0;aspect=fixed;html=1;verticalAlign=top;strokeColor=none;align=center;outlineConnect=0;shape=mxgraph.citrix.desktop;fontSize=22;" vertex="1" parent="1">
          <mxGeometry x="1288.5" y="2010" width="89" height="98" as="geometry" />
        </mxCell>
        <mxCell id="-EbjCZFaRYP1S_G91VMJ-74" style="edgeStyle=none;rounded=0;orthogonalLoop=1;jettySize=auto;html=1;fontSize=22;endArrow=none;endFill=0;" edge="1" parent="1" source="-EbjCZFaRYP1S_G91VMJ-73" target="-EbjCZFaRYP1S_G91VMJ-71">
          <mxGeometry relative="1" as="geometry" />
        </mxCell>
        <mxCell id="-EbjCZFaRYP1S_G91VMJ-75" style="edgeStyle=none;rounded=0;orthogonalLoop=1;jettySize=auto;html=1;fontSize=22;endArrow=none;endFill=0;" edge="1" parent="1" source="-EbjCZFaRYP1S_G91VMJ-73" target="-EbjCZFaRYP1S_G91VMJ-72">
          <mxGeometry relative="1" as="geometry" />
        </mxCell>
        <mxCell id="-EbjCZFaRYP1S_G91VMJ-73" value="" style="verticalLabelPosition=bottom;sketch=0;aspect=fixed;html=1;verticalAlign=top;strokeColor=none;align=center;outlineConnect=0;shape=mxgraph.citrix.switch;fontSize=22;" vertex="1" parent="1">
          <mxGeometry x="1740" y="1859" width="92" height="41.5" as="geometry" />
        </mxCell>
        <mxCell id="-EbjCZFaRYP1S_G91VMJ-78" value="&lt;font style=&quot;font-size: 29px&quot;&gt;Management&lt;/font&gt;" style="text;html=1;strokeColor=none;fillColor=none;align=center;verticalAlign=middle;whiteSpace=wrap;rounded=0;fontSize=22;" vertex="1" parent="1">
          <mxGeometry x="1065" y="1720" width="60" height="30" as="geometry" />
        </mxCell>
      </root>
    </mxGraphModel>
  </diagram>
</mxfile>
